<svg xmlns="http://www.w3.org/2000/svg" viewBox="0 0 500 500"><g id="freepik--background-complete--inject-100"><path d="M444.71,349.14H264a5.87,5.87,0,0,1-5.86-5.86V80A5.87,5.87,0,0,1,264,74.15H444.71A5.87,5.87,0,0,1,450.57,80V343.28A5.87,5.87,0,0,1,444.71,349.14ZM264,74.4A5.61,5.61,0,0,0,258.35,80V343.28a5.61,5.61,0,0,0,5.61,5.61H444.71a5.61,5.61,0,0,0,5.61-5.61V80a5.61,5.61,0,0,0-5.61-5.61Z" style="fill:#f0f0f0"></path><path d="M236.28,349.14H55.53a5.87,5.87,0,0,1-5.86-5.86V80a5.87,5.87,0,0,1,5.86-5.86H236.28A5.87,5.87,0,0,1,242.14,80V343.28A5.87,5.87,0,0,1,236.28,349.14ZM55.53,74.4A5.61,5.61,0,0,0,49.92,80V343.28a5.61,5.61,0,0,0,5.61,5.61H236.28a5.61,5.61,0,0,0,5.61-5.61V80a5.61,5.61,0,0,0-5.61-5.61Z" style="fill:#f0f0f0"></path><rect x="0.79" y="410.21" width="500" height="0.25" style="fill:#e0e0e0"></rect><rect x="133.55" y="84.73" width="97.9" height="97.9" style="fill:#e6e6e6"></rect><rect x="138.51" y="89.69" width="87.99" height="87.98" transform="translate(316.18 -48.82) rotate(90)" style="fill:#fafafa"></rect><path d="M176.6,157.69s16.16-33.12,49.89-33.79v53.77h-44Z" style="fill:#f0f0f0"></path><path d="M138.51,148.39s14.53-7.61,29.29-2c18.54,7,29.3,31.3,29.3,31.3H138.51Z" style="fill:#f5f5f5"></path><circle cx="168.69" cy="117.58" r="15.52" transform="translate(-16.59 28.39) rotate(-9.17)" style="fill:#fff"></circle><rect x="268.63" y="84.22" width="85.89" height="166.27" style="fill:#e6e6e6"></rect><rect x="233.39" y="129.37" width="156.36" height="75.98" transform="translate(478.93 -144.21) rotate(90)" style="fill:#fafafa"></rect><circle cx="299.89" cy="137.63" r="15.52" transform="translate(133.47 422.55) rotate(-84.36)" style="fill:#fff"></circle><path d="M287.79,245.54S307,153.08,349.56,144.78V245.54H287.79Z" style="fill:#f0f0f0"></path><path d="M273.58,190.67s9.79-9.44,25.3-3.8c29.14,10.6,45.4,58.67,45.4,58.67h-70.7Z" style="fill:#f5f5f5"></path><path d="M68.45,359.13s-7.23,2.06-15.2-8.27c-5.77-7.47-16-23.41-30-23.69,0,0,16.71-7.24,31.45.14s22.61,26.46,13.8,31.82" style="fill:#f5f5f5"></path><path d="M72.76,389.07h0a.48.48,0,0,1-.46-.5,108.56,108.56,0,0,0-1.51-21.4C69,356.76,64.65,343,54.45,336.7a.48.48,0,0,1-.15-.66.47.47,0,0,1,.65-.15c4.65,2.88,8.51,7.46,11.46,13.61A67.66,67.66,0,0,1,71.71,367a110.64,110.64,0,0,1,1.53,21.6A.49.49,0,0,1,72.76,389.07Z" style="fill:#e0e0e0"></path><path d="M73.93,336.37s7.32-1.71,9.26-14.62c1.41-9.33,2.58-28.22,14.75-35.29,0,0-18.12,1.79-27.42,15.39s-6.9,34.12,3.41,34.52" style="fill:#f5f5f5"></path><path d="M84,389.91a.48.48,0,0,1-.45-.31,253.8,253.8,0,0,1-8.4-29.85,161.52,161.52,0,0,1-3.63-26.22c-.42-9.72.54-17.78,2.88-24a.48.48,0,1,1,.89.34c-5.19,13.76-2.43,34.59.8,49.65a251.24,251.24,0,0,0,8.36,29.72.48.48,0,0,1-.29.61A.45.45,0,0,1,84,389.91Z" style="fill:#e0e0e0"></path><path d="M86.73,342.69s7.45,1,13.88-10.34c4.65-8.21,12.5-25.43,26.4-27.69,0,0-17.56-4.8-31.12,4.58s-18.64,29.39-9.16,33.45" style="fill:#f5f5f5"></path><path d="M87.87,389.91a.48.48,0,0,1-.47-.38,166.4,166.4,0,0,1-2.53-27.7,104.5,104.5,0,0,1,2.29-23.61c2-8.58,5.19-15.44,9.6-20.4a.48.48,0,1,1,.71.64c-9.75,11-11.72,29.63-11.65,43.37a163.39,163.39,0,0,0,2.52,27.51.48.48,0,0,1-.38.56Z" style="fill:#e0e0e0"></path><path d="M99.52,360.07s7.1,2.47,15.67-7.38c6.18-7.12,17.3-22.44,31.37-21.89,0,0-16.26-8.2-31.41-1.7s-24.11,25.1-15.63,31" style="fill:#f5f5f5"></path><path d="M92.61,389.91a.47.47,0,0,1-.47-.46,80.54,80.54,0,0,1,2.39-19.35,68.21,68.21,0,0,1,6.52-17,48.85,48.85,0,0,1,13.24-15.45.49.49,0,0,1,.67.1.48.48,0,0,1-.09.67c-11.74,8.81-17,22.2-19.41,31.88a80.28,80.28,0,0,0-2.37,19.09.48.48,0,0,1-.46.49Z" style="fill:#e0e0e0"></path><polygon points="109.62 388.76 102.85 410.11 66.11 410.11 59.33 388.76 109.62 388.76" style="fill:#e0e0e0"></polygon><path d="M118.3,240.07h1.58v-1.58H77a5.15,5.15,0,0,0,0,10.3h42.88v-1.58H118.3Z" style="fill:#f0f0f0"></path><path d="M118.3,240.07v7.14H79a3.53,3.53,0,0,1-3.48-3.57,3.58,3.58,0,0,1,1-2.52A3.41,3.41,0,0,1,79,240.07Z" style="fill:#fff"></path><path d="M118.3,241.88V243H80a.55.55,0,0,1-.55-.54h0a.55.55,0,0,1,.55-.54Z" style="fill:#f0f0f0"></path><path d="M118.3,244.57v1.09H80a.55.55,0,0,1-.55-.55h0a.55.55,0,0,1,.55-.54Z" style="fill:#f0f0f0"></path><path d="M111.83,229.77h1.59v-1.58H70.53a5.15,5.15,0,0,0,0,10.3h42.89V236.9h-1.59Z" style="fill:#e0e0e0"></path><path d="M111.83,229.77v7.13H72.48A3.51,3.51,0,0,1,69,233.34a3.65,3.65,0,0,1,1-2.53,3.46,3.46,0,0,1,2.46-1Z" style="fill:#fff"></path><path d="M111.83,231.57v1.1H73.5a.55.55,0,0,1-.54-.55h0a.55.55,0,0,1,.54-.55Z" style="fill:#f0f0f0"></path><path d="M111.83,234.26v1.09H73.5a.54.54,0,0,1-.54-.54h0a.55.55,0,0,1,.54-.55Z" style="fill:#f0f0f0"></path><rect x="60.19" y="248.81" width="105" height="6.99" style="fill:#e6e6e6"></rect><polygon points="79.85 262.89 79.85 255.8 71.13 255.8 74.33 262.89 79.85 262.89" style="fill:#e0e0e0"></polygon><polygon points="143.46 262.89 143.46 255.8 152.19 255.8 148.99 262.89 143.46 262.89" style="fill:#e0e0e0"></polygon><rect x="57.33" y="89.69" width="27.55" height="10.31" style="fill:#f5f5f5"></rect><rect x="88.68" y="89.69" width="27.55" height="10.31" style="fill:#f5f5f5"></rect><rect x="72.92" y="103.19" width="27.55" height="10.31" style="fill:#f5f5f5"></rect><rect x="385.7" y="221.35" width="27.55" height="10.31" style="fill:#f5f5f5"></rect><rect x="417.05" y="221.35" width="27.55" height="10.31" style="fill:#f5f5f5"></rect><rect x="401.29" y="234.85" width="27.55" height="10.31" style="fill:#f5f5f5"></rect><rect x="410.48" y="84.73" width="27.55" height="10.31" style="fill:#f5f5f5"></rect><rect x="394.72" y="98.23" width="27.55" height="10.31" style="fill:#f5f5f5"></rect></g><g id="freepik--Table--inject-100"><path d="M464.6,444.33H51.94a2.66,2.66,0,0,1-2.67-2.66h0A2.66,2.66,0,0,1,51.94,439H464.6a2.67,2.67,0,0,1,2.67,2.67h0A2.67,2.67,0,0,1,464.6,444.33Z" style="fill:#263238"></path><path d="M464.6,444.33H51.94a2.66,2.66,0,0,1-2.67-2.66h0A2.66,2.66,0,0,1,51.94,439H464.6a2.67,2.67,0,0,1,2.67,2.67h0A2.67,2.67,0,0,1,464.6,444.33Z" style="fill:#fff;opacity:0.9"></path><path d="M461.08,444.36H55.46a5.62,5.62,0,0,0,5.86,5.34h393.9a5.62,5.62,0,0,0,5.86-5.34Z" style="fill:#263238"></path><path d="M461.08,444.36H55.46a5.62,5.62,0,0,0,5.86,5.34h393.9a5.62,5.62,0,0,0,5.86-5.34Z" style="fill:#fff;opacity:0.8"></path></g><g id="freepik--check-mark-2--inject-100"><path d="M399.58,159.93v.42a.39.39,0,0,1-.38-.42.46.46,0,0,1,.46-.42,19.82,19.82,0,0,0,5.53-.79.41.41,0,0,1,.52.28.41.41,0,0,1-.28.52,20.43,20.43,0,0,1-5.77.83Zm-5.76-.43a20.36,20.36,0,0,1-5.29-2.45.42.42,0,0,1-.13-.58.43.43,0,0,1,.59-.12,19.81,19.81,0,0,0,5.07,2.35.42.42,0,0,1,.28.52.43.43,0,0,1-.4.3ZM410.15,157a.41.41,0,0,1,.13-.58,19.91,19.91,0,0,0,4.22-3.66.41.41,0,0,1,.59,0,.41.41,0,0,1,0,.59,20.56,20.56,0,0,1-4.4,3.82.46.46,0,0,1-.23.06A.4.4,0,0,1,410.15,157Zm-26-3.75a20.61,20.61,0,0,1-3.14-4.91.42.42,0,0,1,.21-.56.42.42,0,0,1,.55.21,19.79,19.79,0,0,0,3,4.71.42.42,0,0,1-.32.69A.43.43,0,0,1,384.14,153.22Zm33.6-4.63a.42.42,0,0,1-.21-.56,19.61,19.61,0,0,0,1.58-5.35.43.43,0,0,1,.48-.36.41.41,0,0,1,.35.47,20.11,20.11,0,0,1-1.65,5.59.41.41,0,0,1-.38.25A.33.33,0,0,1,417.74,148.59Zm-38.37-5.88a20.28,20.28,0,0,1,0-5.82.42.42,0,1,1,.83.12,19.42,19.42,0,0,0-.21,2.85,21,21,0,0,0,.19,2.74.4.4,0,0,1-.35.47h-.06A.42.42,0,0,1,379.37,142.71Zm39.75-5.62a19.73,19.73,0,0,0-1.57-5.37.41.41,0,0,1,.2-.55.42.42,0,0,1,.56.2A20.61,20.61,0,0,1,420,137a.42.42,0,0,1-.36.47h-.06A.42.42,0,0,1,419.12,137.09Zm-37.86-5.23a.42.42,0,0,1-.21-.56,20.41,20.41,0,0,1,3.17-4.89.42.42,0,0,1,.59,0,.41.41,0,0,1,0,.59,20.06,20.06,0,0,0-3,4.69.41.41,0,0,1-.38.25A.47.47,0,0,1,381.26,131.86ZM414.53,127a20,20,0,0,0-4.22-3.67.42.42,0,1,1,.45-.7,20.56,20.56,0,0,1,4.4,3.82.42.42,0,0,1,0,.59.43.43,0,0,1-.28.11A.4.4,0,0,1,414.53,127Zm-26-3.84a.43.43,0,0,1,.13-.58,20.45,20.45,0,0,1,5.3-2.41.42.42,0,1,1,.24.8,20,20,0,0,0-5.09,2.32.44.44,0,0,1-.22.07A.42.42,0,0,1,388.5,123.18ZM405.23,121a19.84,19.84,0,0,0-5.53-.81.42.42,0,1,1,0-.84h0a20.7,20.7,0,0,1,5.77.84.42.42,0,0,1-.12.82Z" style="fill:#407BFF"></path><circle cx="399.66" cy="139.86" r="16.71" style="fill:#407BFF"></circle><path d="M396,147.11h0a1.1,1.1,0,0,1-.79-.37l-5-5.58a1.12,1.12,0,0,1,1.66-1.5l4.27,4.73L406.83,134a1.12,1.12,0,0,1,1.55,1.62L396.77,146.8A1.13,1.13,0,0,1,396,147.11Z" style="fill:#fff"></path><path d="M400.17,186.06v-2.14a.54.54,0,0,1,1.07,0v2.14a.54.54,0,1,1-1.07,0Zm0-6.41v-2.14a.54.54,0,0,1,1.07,0v2.14a.54.54,0,0,1-1.07,0Zm0-6.42V171.1a.54.54,0,1,1,1.07,0v2.13a.54.54,0,1,1-1.07,0Zm0-6.41v-2.14a.54.54,0,0,1,1.07,0v2.14a.54.54,0,1,1-1.07,0Z" style="fill:#407BFF"></path><path d="M399.64,191.94h1.07a.53.53,0,0,0,.53-.53v-1.07a.54.54,0,1,0-1.07,0v.53h-.53a.54.54,0,1,0,0,1.07Z" style="fill:#407BFF"></path><path d="M374.79,191.41a.54.54,0,0,1,.54-.54h2a.54.54,0,0,1,0,1.07h-2A.54.54,0,0,1,374.79,191.41Zm6.08,0a.54.54,0,0,1,.54-.54h2a.54.54,0,1,1,0,1.07h-2A.54.54,0,0,1,380.87,191.41Zm6.08,0a.54.54,0,0,1,.53-.54h2a.54.54,0,0,1,0,1.07h-2A.53.53,0,0,1,387,191.41Zm6.08,0a.54.54,0,0,1,.53-.54h2a.54.54,0,0,1,0,1.07h-2A.53.53,0,0,1,393,191.41Z" style="fill:#407BFF"></path></g><g id="freepik--check-mark-1--inject-100"><path d="M97.15,160.35a20.33,20.33,0,0,1-5.77-.83.43.43,0,0,1-.29-.52.42.42,0,0,1,.52-.28,19.83,19.83,0,0,0,5.54.79.46.46,0,0,1,.46.42.39.39,0,0,1-.38.42v-.42Zm5.72-.83a.42.42,0,0,1-.12-.82,19.81,19.81,0,0,0,5.07-2.35.42.42,0,0,1,.58.12.41.41,0,0,1-.12.58A20.36,20.36,0,0,1,103,159.5Zm-16.56-2.36a.46.46,0,0,1-.23-.06,20.56,20.56,0,0,1-4.4-3.82.41.41,0,0,1,0-.59.41.41,0,0,1,.59,0,19.91,19.91,0,0,0,4.22,3.66.42.42,0,0,1,.13.58A.41.41,0,0,1,86.31,157.16Zm26-3.8a.39.39,0,0,1-.27-.1.41.41,0,0,1,0-.59,19.79,19.79,0,0,0,3-4.71.42.42,0,0,1,.55-.21.42.42,0,0,1,.21.56,20.61,20.61,0,0,1-3.14,4.91A.43.43,0,0,1,112.35,153.36ZM78.9,148.63a.42.42,0,0,1-.39-.25,20.09,20.09,0,0,1-1.64-5.59.41.41,0,0,1,.35-.47.43.43,0,0,1,.48.36A19.27,19.27,0,0,0,79.28,148a.43.43,0,0,1-.21.56A.38.38,0,0,1,78.9,148.63ZM117,143.07H117a.42.42,0,0,1-.36-.47,19.41,19.41,0,0,0,.19-2.74,20.89,20.89,0,0,0-.2-2.85.41.41,0,0,1,.35-.48.43.43,0,0,1,.48.36,21.28,21.28,0,0,1,0,5.82A.42.42,0,0,1,117,143.07Zm-39.74-5.62h-.06a.42.42,0,0,1-.36-.47,20.26,20.26,0,0,1,1.64-5.6.42.42,0,0,1,.76.35,19.38,19.38,0,0,0-1.57,5.37A.42.42,0,0,1,77.28,137.45Zm38.1-5.55a.41.41,0,0,1-.38-.25,20.06,20.06,0,0,0-3-4.69.41.41,0,0,1,0-.59.42.42,0,0,1,.59,0,20.72,20.72,0,0,1,3.17,4.89.42.42,0,0,1-.21.56A.47.47,0,0,1,115.38,131.9ZM82,127.17a.43.43,0,0,1-.28-.11.42.42,0,0,1,0-.59A20.75,20.75,0,0,1,86,122.65a.42.42,0,1,1,.46.7A20,20,0,0,0,82.28,127,.4.4,0,0,1,82,127.17Zm26-3.79a.48.48,0,0,1-.23-.07,19.94,19.94,0,0,0-5.08-2.32.42.42,0,0,1-.29-.52.42.42,0,0,1,.52-.28,20.51,20.51,0,0,1,5.31,2.41.42.42,0,0,1,.12.58A.41.41,0,0,1,108,123.38ZM91.46,121a.43.43,0,0,1-.41-.3.42.42,0,0,1,.29-.52,20.68,20.68,0,0,1,5.76-.84h0a.42.42,0,0,1,0,.84,19.71,19.71,0,0,0-5.52.81Z" style="fill:#407BFF"></path><circle cx="97.15" cy="139.86" r="16.71" style="fill:#407BFF"></circle><path d="M94.24,147.11h0a1.1,1.1,0,0,1-.79-.37l-5-5.58a1.12,1.12,0,0,1,1.67-1.5l4.26,4.73L105.08,134a1.12,1.12,0,0,1,1.55,1.62L95,146.8A1.13,1.13,0,0,1,94.24,147.11Z" style="fill:#fff"></path><path d="M96.1,186.6a.54.54,0,0,1-.54-.54v-2.14a.54.54,0,0,1,1.08,0v2.14A.54.54,0,0,1,96.1,186.6Zm0-6.42a.54.54,0,0,1-.54-.53v-2.14a.54.54,0,0,1,1.08,0v2.14A.54.54,0,0,1,96.1,180.18Zm0-6.41a.54.54,0,0,1-.54-.54V171.1a.54.54,0,0,1,1.08,0v2.13A.54.54,0,0,1,96.1,173.77Zm0-6.41a.54.54,0,0,1-.54-.54v-2.14a.54.54,0,0,1,1.08,0v2.14A.54.54,0,0,1,96.1,167.36Z" style="fill:#407BFF"></path><path d="M97.17,191.94H96.1a.54.54,0,0,1-.54-.53v-1.07a.54.54,0,0,1,1.08,0v.53h.53a.54.54,0,1,1,0,1.07Z" style="fill:#407BFF"></path><path d="M121.48,191.94h-2a.54.54,0,0,1,0-1.07h2a.54.54,0,0,1,0,1.07Zm-6.08,0h-2a.54.54,0,1,1,0-1.07h2a.54.54,0,1,1,0,1.07Zm-6.08,0h-2a.54.54,0,1,1,0-1.07h2a.54.54,0,1,1,0,1.07Zm-6.07,0h-2a.54.54,0,0,1,0-1.07h2a.54.54,0,0,1,0,1.07Z" style="fill:#407BFF"></path></g><g id="freepik--character-2--inject-100"><polygon points="295.36 384.45 289.28 438.97 348.25 438.97 349.97 431.91 353.6 438.97 407.8 439.42 405.78 387.49 295.36 384.45" style="fill:#263238"></polygon><path d="M386.29,222.14c-22.3-2.75-53.92-2.5-74.92,1.16a23.85,23.85,0,0,0-19.58,21.61c-2.6,32-4.38,85.37,1.73,141.72,49.4,16.57,115.3,3.63,115.3,3.63-.47-16.16-4.54-50-4.27-70.32.36-26.74,2.74-43.42,2.49-70.71-.13-13.39-7.47-25.45-20.75-27.09" style="fill:#407BFF"></path><path d="M386.29,222.14c-22.3-2.75-53.92-2.5-74.92,1.16a23.85,23.85,0,0,0-19.58,21.61c-2.6,32-4.38,85.37,1.73,141.72,49.4,16.57,115.3,3.63,115.3,3.63-.47-16.16-4.54-50-4.27-70.32.36-26.74,2.74-43.42,2.49-70.71-.13-13.39-7.47-25.45-20.75-27.09" style="fill:#fff;opacity:0.2"></path><path d="M328.51,265.08c-1.76-4.4,3-8.65,7.28-6.55a17.72,17.72,0,0,1,3.66,2.39c-2.52-1.92-6.49-5-5.42-6.32,2-2.44,15.11,5.64,20.77,9.86-3.81-4.75-3.18-12.86-.95-9.77,2.58,3.63,6.25,7.87,11.58,14.49,7.42,9.17.77,18.09.77,18.09-6.44,5.64-17.1,2-22.5-2S327.29,273,328.5,269.66c.49-1.31,3.88,1,6.06,2.59a22.75,22.75,0,0,1-6-7Z" style="fill:#ce7a63"></path><path d="M350.82,277.93c-.06.06-.14.11-.2.16l.21-.15c2.23-1.52,5.5-3.52,5.92-2.24a.13.13,0,0,1,0,.08,2.2,2.2,0,0,1-.13,1.29c-1.06,2.93-6.78,7.39-11.6,10.87-1.46,1.07-2.83,2-4,2.84-5.52,3.91-17.25,6.81-21.41,1.1,0,0-7.91-6-.2-15,3.34-3.9,6.45-9.79,8.66-12.38,1.43-1.68,2.66-3.15,3.71-4.54l0,0c.45-.59.84-.75,1.12-.59a.81.81,0,0,1,.39.49,5.58,5.58,0,0,1,.2,2.36,14.11,14.11,0,0,1-1.17,4.59,11.54,11.54,0,0,1-1.79,2.88l.92-.63.8-.53a101.37,101.37,0,0,1,10.34-5.93,42.63,42.63,0,0,1,4.29-1.86c2.34-.82,4.12-1.07,4.71-.27.42.56,0,1.39-.82,2.28a23.33,23.33,0,0,1-3.4,2.88,19,19,0,0,1,2.34-1.28,5.13,5.13,0,0,1,3.85-.2,1.72,1.72,0,0,1,.52,1,3.54,3.54,0,0,1-.7,2.42c1.48-.7,2.68-.75,3.41-.11a1.29,1.29,0,0,1,.23.24,4.92,4.92,0,0,1-.23,3.46c0,.07-.05.13-.07.2a8.26,8.26,0,0,1-.56,1c-.29.43-.63.88-1,1.34l-.44.52c-.05.08-.12.14-.18.22A28.24,28.24,0,0,1,350.82,277.93Z" style="fill:#ce7a63"></path><g style="opacity:0.2"><path d="M331.84,269.35a.25.25,0,0,1-.21-.1c-.06-.05-.16-.2,0-.43.57-.91,2.58-7.23,2-8.75-.07-.18-.14-.2-.17-.21-1-.25-3.53,2.71-4.91,4.65a.26.26,0,0,1-.37.06.27.27,0,0,1-.06-.38c.63-.88,3.86-5.27,5.48-4.85a.82.82,0,0,1,.53.53c.62,1.58-1,6.93-1.79,8.74.76-.39,2.24-1.27,3.79-2.19,2.9-1.72,6.88-4.08,10.49-5.89a.26.26,0,0,1,.36.12.28.28,0,0,1-.12.36c-3.6,1.8-7.56,4.15-10.46,5.87C333,268.86,332.17,269.35,331.84,269.35Z"></path></g><g style="opacity:0.2"><path d="M357.45,275.89c.43,1.91-4.4,6.78-12,12.12a.26.26,0,0,1-.15,0,.3.3,0,0,1-.23-.11.27.27,0,0,1,.07-.37c7.25-5.07,10.59-8.66,11.53-10.5a1.67,1.67,0,0,0,.29-1.06.48.48,0,0,0-.16-.23,1.46,1.46,0,0,0-.24-.07c-2-.31-5.3,2.25-5.34,2.27a.28.28,0,0,1-.37,0h0a.25.25,0,0,1,0-.35s4.56-4.44,5.58-6.67c.65-1.42.68-2.58.09-3.1s-2.18-.29-3.9.81h0l-6.09,4.31a.28.28,0,0,1-.15,0,.26.26,0,0,1-.23-.11.27.27,0,0,1,.06-.37l6.12-4.32h0c.24-.28,1.52-1.81,1.3-3a1.43,1.43,0,0,0-.88-1c-1.27-.61-3.89.73-5.95,2.06-.79.6-1.59,1.18-2.32,1.68a.28.28,0,0,1-.37-.06.28.28,0,0,1,0-.37c.1-.08,1.07-.85,2.36-1.69,2.05-1.53,4-3.06,4-3.08a.26.26,0,0,1,.35,0l0,0a.27.27,0,0,1,0,.38s-.48.39-1.19.93a4.35,4.35,0,0,1,3.32-.37,2.59,2.59,0,0,1,.67.44,1.72,1.72,0,0,1,.52,1,3.54,3.54,0,0,1-.7,2.42c1.48-.7,2.68-.75,3.41-.11a1.29,1.29,0,0,1,.23.24c.57.74.5,2-.17,3.47a7.47,7.47,0,0,1-.69,1.16c-.29.43-.63.88-1,1.34l-.44.52c-.05.08-.12.14-.18.22-.55.64-1.13,1.28-1.66,1.82a6.48,6.48,0,0,1,3.67-1A.93.93,0,0,1,357.45,275.89Z"></path></g><path d="M331.21,135.54s-22.52-9.33-31.37-3.77c-7,4.38-1.8,12.45-1.8,12.45s-13.43,1.05-13,9.55c.34,7.21,7.6,7.27,7.6,7.27s-4.37,8.44,1,10.07,10.95-9.49,10.95-9.49Z" style="fill:#263238"></path><path d="M356.44,177s6.18,8.11,5.13,10.49c-1.58,3.56-6.41-.18-6.41-.18s4.44,5.52.4,8.46-7.43-10.86-7.43-10.86Z" style="fill:#263238"></path><path d="M321.25,137a33.86,33.86,0,0,1,26.83,3c5.27,3.11,9.74,7.68,9.28,14.16-1.08,15.11-6.65,40.19-6.65,40.19l-49.82-27.26s-2.74-12.55,3.06-20.78C307,142.05,314.61,139,321.25,137Z" style="fill:#263238"></path><path d="M327.39,212v0a1.42,1.42,0,0,1,.08.18l2.77,8.54a28.74,28.74,0,0,1-.05,9.46c-1.76,2.72-2.34,8.69,4.43,8.35,8.55-.42,23.54-13.76,23.9-17.56-4.59-11.46-8.65-24.94-8.62-36.13l-9.17,11.08Z" style="fill:#ce7a63"></path><g style="opacity:0.2"><path d="M327.47,212.19l2.77,8.54c5.21-2.74,10.52-8.3,11.49-14.06.67-4.16-1.39-7.9-3.06-8Z"></path></g><path d="M304.85,195.22c.61,1.86,1.28,3.68,2,5.48,6.28,15.87,26.3,16.24,38.05,3.65,0,0,0,0,0,0a29.59,29.59,0,0,0,2.92-3.67c7.32-10.8,4.9-18.66,2.72-36.69a24.74,24.74,0,0,0-38-18.09C297.86,155.23,298.73,176.66,304.85,195.22Z" style="fill:#ce7a63"></path><path d="M324.54,171.76a7.13,7.13,0,0,1-4.66-1.09,1,1,0,1,1,1.28-1.45c.78.69,4.28,1,6.18-.21a1,1,0,0,1,1.06,1.62A8,8,0,0,1,324.54,171.76Z" style="fill:#263238"></path><path d="M306.14,175a7,7,0,0,0,3.68-3.06,1,1,0,1,0-1.79-.72c-.4,1-3.37,2.85-5.62,2.58a1,1,0,0,0-1.08.85,1,1,0,0,0,.85,1.07A7.91,7.91,0,0,0,306.14,175Z" style="fill:#263238"></path><path d="M316.88,197.64c-.3,0-.48,0-.49,0a.53.53,0,0,1-.51-.56.54.54,0,0,1,.57-.52c.29,0,7.42.27,8.11-7.84a.54.54,0,1,1,1.07.09C325,196.68,318.7,197.55,316.88,197.64Z" style="fill:#263238"></path><path d="M350.84,165.63s-5.44.55-5.42,5.23.53,5.28.53,5.28l-6.38,1.68s.86-17.91-3.82-17.44,0-7.8-2.9-8.81c-6.8-2.39-25-1.61-31.38,9.69,0,0,1.28-10.88,9.59-17.14s25.57-8.39,33-.25S350.84,165.63,350.84,165.63Z" style="fill:#263238"></path><path d="M360.39,174.44A17.23,17.23,0,0,1,354.12,186c-4.72,3.78-9.44.13-10.11-5.56-.59-5.13,1.14-13.27,6.83-14.83s10.08,3.24,9.55,8.81" style="fill:#ce7a63"></path><path d="M325.74,177.49c.26,1.41-.28,2.68-1.2,2.85s-1.87-.83-2.13-2.23.28-2.69,1.2-2.85,1.87.83,2.13,2.23" style="fill:#263238"></path><path d="M310.3,180.14c.26,1.41-.28,2.68-1.19,2.85s-1.88-.83-2.14-2.24.28-2.68,1.2-2.85,1.87.84,2.13,2.24" style="fill:#263238"></path><path d="M314.8,177.18s-3.61,9.8-3.83,12.25c-.15,1.68,5.15,1.39,5.15,1.39Z" style="fill:#ba4d3c"></path><path d="M329.2,219.05v0a.11.11,0,0,0,0,0Z"></path><path d="M410.65,249.06c2.73,6.46,5.08,12.8,7.41,19.28q1.69,4.86,3.33,9.76c1.07,3.27,2.09,6.56,3.1,9.87,2,6.63,3.8,13.36,5.4,20.31.76,3.5,1.46,7.05,2,10.77.28,1.86.53,3.78.71,5.8.08,1,.19,2,.21,3.15l0,1.65c0,.59,0,1.23-.05,1.83l0,.92,0,.51c0,.39-.07.78-.13,1.17a13.1,13.1,0,0,1-.9,3.16,12.91,12.91,0,0,1-1,1.89,12.78,12.78,0,0,1-5.3,4.68,13.07,13.07,0,0,1-6,1.26c-.31,0-.6,0-.9-.05l-.43,0-.36-.05-.7-.11-.57-.13a15.73,15.73,0,0,1-1.83-.53,19.42,19.42,0,0,1-2.39-1,34.43,34.43,0,0,1-3.21-1.84c-.92-.59-1.76-1.16-2.56-1.74-3.18-2.29-5.92-4.55-8.6-6.87-5.33-4.63-10.35-9.31-15.24-14.12-9.79-9.59-19.14-19.39-28.16-29.68l9.11-9.69,31.94,24.4c5.33,4,10.63,8,15.93,11.62,2.65,1.8,5.29,3.6,7.74,5,.6.35,1.19.67,1.72.94a8.7,8.7,0,0,0,1.24.54c.1,0,.15,0,0-.07a3,3,0,0,0-.61-.19l-.26-.06-.39-.07-.48-.06a5.35,5.35,0,0,0-.58,0,10.22,10.22,0,0,0-4.73,1,11.7,11.7,0,0,0-1.71,1,12,12,0,0,0-1.62,1.42,11.35,11.35,0,0,0-1.27,1.64,11.06,11.06,0,0,0-.85,1.6,10.65,10.65,0,0,0-.73,2.56,8.2,8.2,0,0,0-.1.85v.22c0,.08,0,0,0,0v0l0-.35-.06-.7-.11-.86c-.05-.54-.19-1.25-.28-1.88-.23-1.32-.51-2.74-.85-4.19-.67-2.9-1.5-5.91-2.4-8.95-1.75-6.1-3.86-12.28-6-18.48s-4.37-12.41-6.65-18.62L385.68,259Z" style="fill:#ce7a63"></path><path d="M391.56,223.44s12.63.21,20.69,17.4C419,255.35,427,283.08,427,283.08l-37,5.65s-11-28.83-12.28-43.69S382.18,225,391.56,223.44Z" style="fill:#407BFF"></path><path d="M330,290.93c-7.44,9-15.16,17.68-23.13,26.22-4,4.28-8,8.49-12.26,12.66-1.56,1.54-3.14,3.09-4.78,4.63-.57.54-1.15,1.06-1.74,1.6-1.14,1-2.31,2.07-3.58,3.14-.64.52-1.3,1.07-2,1.63a31.85,31.85,0,0,1-2.73,1.87,15.89,15.89,0,0,1-2.86,1.36l-.3.1-.4.13a8.51,8.51,0,0,1-.9.22,11.69,11.69,0,0,1-3.21.28,11.47,11.47,0,0,1-1.3-.14,6.5,6.5,0,0,1-.83-.16c-.31-.07-.61-.15-.92-.24a12.17,12.17,0,0,1-4-2.22,11.76,11.76,0,0,1-1.82-1.91c-.3-.4-.49-.71-.6-.87l-.39-.67a10.89,10.89,0,0,1-.91-2.18c-.12-.35-.16-.53-.22-.75L261,335c-.08-.42-.1-.65-.15-1s-.05-.49-.07-.74l0-.61c0-.74,0-1.19,0-1.65,0-.86.12-1.47.19-2,.29-2.19.65-3.74,1-5.36.7-3.15,1.46-6.05,2.25-9,1.58-5.78,3.31-11.38,5.08-17,3.6-11.14,7.44-22.07,11.84-32.9l9.22,3.48c-.55,11.4-.92,24.19-.93,38,8.8-7.12,22.75-17.41,31.71-24.42Z" style="fill:#ce7a63"></path><path d="M305.2,225.29a23.92,23.92,0,0,0-13.41,19.62c-1,12.5-1.91,28.28-2.26,46.2l-21.82-9.54s6.53-13.68,16.84-34.79C293,229.46,304.73,225.34,305.2,225.29Z" style="fill:#407BFF"></path></g><g id="freepik--character-1--inject-100"><path d="M134,368.44s.63,15.79-2.57,24.06c1.92,3.35,68.41,14.58,97.77-10.15l-3.34-19.49Z" style="fill:#263238"></path><path d="M249.38,439l-20.14-58.56s-27.25,20-96.19,5.9c0,0-13.41,21.41-16,41-.53,4.06-.83,8-1,11.7Z" style="fill:#263238"></path><path d="M172.29,138.76s31.42-12.18,42.09,13.58c9.1,22-8.8,36.29-5.61,57.48s6.13,29.91-10.88,43c-11.45,8.84-29.66-26-29.66-26Z" style="fill:#263238"></path><path d="M179.86,136.73s-28.46-8.81-37.65,21.42c-7.16,23.53-1.33,36.79-16.86,43.68s-21,36.94,14.91,33.48,34.43-15.15,52.68-4.11S192,135.21,179.86,136.73Z" style="fill:#263238"></path><path d="M220.48,322l-.09.09c.16,2.95.36,6,.6,9.08a219.08,219.08,0,0,0,5.1,32.6c1.62,7-36.75,15.89-64.7,16.49-15.52.34-27.81-1.88-28.33-8.34a96.59,96.59,0,0,0-4.12-19.71c-1.35-4.53-3-9.25-4.74-14.07-.28-.76-.56-1.52-.85-2.29q-1.3-3.47-2.7-7c-1.91-4.88-4-9.79-6-14.63-.76-1.82-1.5-3.6-2.22-5.38-10.39-25.3-18-46.73-9.34-60.93,1.69-2.77,4.65-5.57,8.28-8.29,14.61-10.93,40.31-20.44,40.31-20.44l25.19.13s10.22,4.2,19,8.42c10.46,5,17.63,11.11,20.54,18.51a38,38,0,0,1,1.9,6.78v0s8.94,24.9,12.92,37.49c2.7,8.54,0,16.46-3.72,22.57A49.73,49.73,0,0,1,220.48,322Z" style="fill:#407BFF"></path><path d="M227.58,313.08a49.73,49.73,0,0,1-7.1,9l-15.81-28.87Z" style="opacity:0.2"></path><path d="M168.85,297.07c-11.72,20.71-24.45,39.94-39.91,55.18-1.35-4.53-3-9.25-4.74-14.07-.28-.76-.56-1.52-.85-2.29Z" style="opacity:0.2"></path><path d="M245.65,307.19c-.27-.12-.56-.27-.88-.44l.17,0a7.87,7.87,0,0,1,1,.34c.35.17.42.24.42.27S246,307.34,245.65,307.19Z" style="fill:#407BFF"></path><path d="M255.48,318.26c0,.32,0,.84-.09,1.25a13.86,13.86,0,0,1-.92,3.53c-.13.3-.33.74-.54,1.12s-.44.77-.68,1.14a12.84,12.84,0,0,1-2,2.27,12.32,12.32,0,0,1-2.41,1.74,12.88,12.88,0,0,1-2.38,1l-.57.17-.48.11c-.32.07-.64.13-1,.18a15.26,15.26,0,0,1-1.58.13,13.41,13.41,0,0,1-3.66-.44,14.3,14.3,0,0,1-1.86-.62,17.22,17.22,0,0,1-2.1-1,27,27,0,0,1-2.53-1.68c-.69-.52-1.31-1-1.89-1.5-1.16-1-2.19-1.9-3.2-2.84-2-1.85-3.81-3.75-5.61-5.62s-3.53-3.76-5.21-5.68c-3.4-3.82-13.15-17.28-16.33-21.34l5.22-5.06-.43-.59-4.3-5.94-4.25-6c-2.79-4-5.64-8.05-8.24-12.09L214.45,242c3.15,4,6,8.12,8.82,12.28,1.39,2.09,2.8,4.17,4.17,6.28l4,6.38c5.28,8.59,10.36,17.32,15,26.59a150.05,150.05,0,0,1,6.67,14.9c.26.75.52,1.42.79,2.23l.4,1.24.2.65c.12.37.25.79.38,1.29a15.42,15.42,0,0,1,.39,1.95,13.15,13.15,0,0,1,.14,1.47C255.48,317.58,255.49,317.92,255.48,318.26Z" style="fill:#407BFF"></path><path d="M213.17,277.2,241,302S229.5,285.66,213.17,277.2Z" style="opacity:0.2"></path><path d="M167.83,235.26c.38.11.76.19,1.13.27,6.13,1.17,10.91-4.87,8.93-10.79a12.89,12.89,0,0,1,0-7.58,33,33,0,0,1,3.07-7.3l-2.83-4.05L163.1,187.3c-.69,11.3-3.85,27.43-13.25,32.68,0,0,2,6.87,13.28,13.47A26.83,26.83,0,0,0,167.83,235.26Z" style="fill:#ff8b7b"></path><g style="opacity:0.2"><path d="M177.91,217.16a33,33,0,0,1,3.07-7.3l-2.83-4.05-9.3-2.1S171.44,213.63,177.91,217.16Z"></path></g><path d="M160.06,167.23c-1.16,18.57-1.29,23.35,6.67,33.94,12,15.92,33.86,16.26,40.44-1.61,5.93-16.08,6.83-43.75-10-53.26-16.55-9.38-36,2.36-37.15,20.93" style="fill:#ff8b7b"></path><path d="M196,144.87s4.8,15.25-14.41,16.81-13.45,14.79-20.66,13.22-6-18.18,5-26.67C173.61,142.35,182.74,137.78,196,144.87Z" style="fill:#263238"></path><path d="M196.4,195.26a6.69,6.69,0,0,1-3.9-1.21,9,9,0,0,1-3.63-5.73.48.48,0,0,1,.48-.48.49.49,0,0,1,.48.48,8.25,8.25,0,0,0,3.21,4.94,6.37,6.37,0,0,0,6.18.48.48.48,0,1,1,.34.9A9,9,0,0,1,196.4,195.26Z" style="fill:#263238"></path><path d="M187.21,174.46c-.18,1.5.46,2.81,1.44,2.94s1.93-1,2.11-2.5-.46-2.82-1.44-2.94-1.93,1-2.11,2.5" style="fill:#263238"></path><path d="M202.81,176.78c-.18,1.5.46,2.82,1.45,2.94s1.92-1,2.11-2.5-.46-2.82-1.45-2.94-1.92,1-2.11,2.5" style="fill:#263238"></path><path d="M204.48,174.31l3.73-.59s-2.19,2.59-3.73.59" style="fill:#263238"></path><path d="M200.38,177s2.1,4.29,4.48,8.09a2.26,2.26,0,0,1-1.14,3.36,22.44,22.44,0,0,1-4.86,1Z" style="fill:#ff5652"></path><path d="M182.87,166.22a.86.86,0,0,1,.68-.15,7.07,7.07,0,0,0,6.21-1.63.89.89,0,1,1,1.28,1.23,8.82,8.82,0,0,1-7.82,2.14.88.88,0,0,1-.7-1,.86.86,0,0,1,.35-.55" style="fill:#263238"></path><path d="M211.79,169.36a1,1,0,0,1,.18.64.9.9,0,0,1-1,.79,8.81,8.81,0,0,1-6.86-4.32.89.89,0,1,1,1.58-.81,7,7,0,0,0,5.47,3.36.91.91,0,0,1,.61.34" style="fill:#263238"></path><path d="M188.88,172l3.73-.6s-2.2,2.59-3.73.6" style="fill:#263238"></path><path d="M150.26,175.88a12,12,0,0,0,6.46,7.4c4,1.65,6.55-2.6,6-7.3-.53-4.23-3.23-10.19-7.45-9.8s-6.36,5.43-5,9.7" style="fill:#ff8b7b"></path><path d="M173,265.23c-1.74-4.35,3-8.55,7.21-6.47a17.11,17.11,0,0,1,3.61,2.36c-2.49-1.9-6.41-4.92-5.35-6.25,1.92-2.42,14.93,5.57,20.53,9.75-3.76-4.7-3.15-12.72-.93-9.66,2.55,3.59,6.18,7.78,11.44,14.32,5.83,7.2,1.85,14.35,0,17a7.74,7.74,0,0,1-1.57,1.66c-8.83,6.84-14.67,1.15-19.87-2.78s-16.23-12-15-15.39c.48-1.29,3.84,1,6,2.56a22.24,22.24,0,0,1-5.91-6.9A1.54,1.54,0,0,1,173,265.23Z" style="fill:#ff8b7b"></path><path d="M195.05,277.94c-.06.06-.14.11-.2.16l.21-.15c2.2-1.5,5.43-3.48,5.86-2.22a.37.37,0,0,1,0,.09,2.13,2.13,0,0,1-.13,1.27c-1,2.89-6.71,7.3-11.47,10.75-1.44,1.06-2.8,2-3.93,2.81-5.46,3.87-14,8.59-20.72.27,0,0-7.88-7.94-.26-16.79,3.3-3.86,6-6.88,8.18-9.44,1.41-1.65,2.62-3.11,3.66-4.48l0,0c.44-.59.83-.75,1.1-.59a.82.82,0,0,1,.38.49,5.43,5.43,0,0,1,.21,2.33,14.12,14.12,0,0,1-1.16,4.55,11.53,11.53,0,0,1-1.77,2.84l.91-.62.79-.52A100.3,100.3,0,0,1,187,262.78a42,42,0,0,1,4.24-1.84c2.31-.82,4.08-1.06,4.66-.26.41.55,0,1.37-.82,2.25a24.08,24.08,0,0,1-3.36,2.85,19.46,19.46,0,0,1,2.32-1.27,5.1,5.1,0,0,1,3.8-.2,1.62,1.62,0,0,1,.51.95,3.48,3.48,0,0,1-.69,2.4c1.47-.69,2.66-.75,3.38-.12a1.79,1.79,0,0,1,.23.25,4.87,4.87,0,0,1-.23,3.42c0,.06,0,.12-.07.19a10.92,10.92,0,0,1-.55,1c-.29.42-.63.87-1,1.31l-.44.52a1.74,1.74,0,0,1-.18.22A28.12,28.12,0,0,1,195.05,277.94Z" style="fill:#ff8b7b"></path><g style="opacity:0.2"><path d="M176.27,269.46a.27.27,0,0,1-.21-.11.32.32,0,0,1,0-.42c.58-.9,2.56-7.15,2-8.65-.07-.18-.15-.2-.17-.21-1-.25-3.49,2.68-4.85,4.59a.27.27,0,1,1-.44-.3c.63-.88,3.83-5.22,5.42-4.8a.76.76,0,0,1,.53.52c.61,1.56-1,6.85-1.77,8.64.75-.38,2.21-1.25,3.74-2.16,2.88-1.71,6.81-4,10.38-5.83a.26.26,0,0,1,.35.12.25.25,0,0,1-.11.35c-3.56,1.78-7.48,4.12-10.35,5.82C177.46,269,176.6,269.46,176.27,269.46Z"></path></g><g style="opacity:0.2"><path d="M201.61,275.93c.41,1.81-4,6.28-10.91,11.28l-.45-.33c6.58-4.7,9.67-8,10.56-9.79a1.69,1.69,0,0,0,.29-1,.49.49,0,0,0-.16-.22l-.24-.08c-1.94-.3-5.24,2.23-5.28,2.25a.27.27,0,0,1-.36,0h0a.26.26,0,0,1,0-.35s4.52-4.39,5.53-6.6c.63-1.4.67-2.55.08-3.06s-2.15-.28-3.85.8h0l-6,4.26a.27.27,0,0,1-.15.05.28.28,0,0,1-.22-.11.26.26,0,0,1,.06-.37l6.05-4.27h0c.23-.28,1.51-1.79,1.28-2.94a1.4,1.4,0,0,0-.87-1c-1.25-.6-3.84.73-5.88,2-.78.59-1.58,1.16-2.3,1.66a.27.27,0,0,1-.36-.06.26.26,0,0,1,0-.36,27.67,27.67,0,0,1,2.33-1.67c2-1.52,3.93-3,4-3a.24.24,0,0,1,.34,0l0,0a.25.25,0,0,1,0,.37s-.47.39-1.17.93a4.28,4.28,0,0,1,3.29-.37,2.37,2.37,0,0,1,.65.43,1.62,1.62,0,0,1,.51.95,3.48,3.48,0,0,1-.69,2.4c1.47-.69,2.66-.75,3.38-.12a1.79,1.79,0,0,1,.23.25c.56.73.5,1.95-.17,3.43a8.76,8.76,0,0,1-.68,1.15c-.29.42-.63.87-1,1.31l-.44.52a1.74,1.74,0,0,1-.18.22c-.54.63-1.11,1.26-1.63,1.8a6.37,6.37,0,0,1,3.62-1A.94.94,0,0,1,201.61,275.93Z"></path></g><path d="M171.16,296.86c-9.29,11.36-19,22.08-29.42,32.53-5.19,5.24-10.57,10.31-16.41,15.31a105.4,105.4,0,0,1-9.65,7.39,43.61,43.61,0,0,1-6.63,3.71c-.74.32-1.54.63-2.49.94a20.46,20.46,0,0,1-3.62.81,16.89,16.89,0,0,1-6.47-.39,15.23,15.23,0,0,1-2.29-.79A14.85,14.85,0,0,1,91.72,355l-.6-.41-.29-.22c-.21-.16-.55-.45-.81-.68a14.19,14.19,0,0,1-1.52-1.6,13.86,13.86,0,0,1-.9-1.23,15.4,15.4,0,0,1-1.69-3.48l-.18-.59-.14-.48-.12-.49-.09-.37-.14-.71-.09-.59-.12-1-.07-.8c-.07-1-.08-1.75-.08-2.44,0-1.37.07-2.52.14-3.61.14-2.18.33-4.15.54-6.09.43-3.87.93-7.56,1.47-11.24,1.17-7.31,2.37-14.51,3.79-21.65C93.58,283,96.67,269,100.4,254.89l29.95,7.24c-3,13.88-6.32,27.82-9.59,41.63-1.2,5.24-2.48,10.46-3.66,15.64,3.21-2.32,6.43-4.73,9.65-7.14C138,303.75,149.2,294.79,160.43,286Z" style="fill:#407BFF"></path><path d="M128,269.35l-9.1,48.73,38-29s-28.35,20-32.24,19.44C122.18,308.17,128,269.35,128,269.35Z" style="opacity:0.2"></path></g></svg>
